<?xml version="1.0" encoding="UTF-8"?>
<!-- Generator: Adobe Illustrator 26.5.0, SVG Export Plug-In . SVG Version: 6.00 Build 0)  -->
<svg xmlns="http://www.w3.org/2000/svg" xmlns:xlink="http://www.w3.org/1999/xlink" version="1.1" id="Warstwa_1" x="0px" y="0px" viewBox="0 0 748.5 190.5" style="enable-background:new 0 0 748.5 190.5;" xml:space="preserve">
<style type="text/css">
	.st0{fill:url(#SVGID_1_);}
	.st1{fill:url(#SVGID_00000139978330521196385890000002627082622999498389_);}
	.st2{fill:url(#SVGID_00000143615725066351871680000013033604117264013241_);}
	.st3{fill:#274C6C;}
</style>
<g>
	<g>
		<linearGradient id="SVGID_1_" gradientUnits="userSpaceOnUse" x1="234.4083" y1="6.9077" x2="234.4083" y2="197.1513">
			<stop offset="0" style="stop-color:#FFF350"></stop>
			<stop offset="5.948725e-02" style="stop-color:#F9DF42"></stop>
			<stop offset="0.1303" style="stop-color:#F4D137"></stop>
			<stop offset="0.2032" style="stop-color:#F0C833"></stop>
			<stop offset="0.2809" style="stop-color:#EFC531"></stop>
			<stop offset="0.6685" style="stop-color:#DC8F47"></stop>
			<stop offset="0.8876" style="stop-color:#D16841"></stop>
			<stop offset="1" style="stop-color:#CA403C"></stop>
		</linearGradient>
		<path class="st0" d="M249.4,126.4c33.1,0,55.3,5.9,69.5,12.3c6.8-13.1,10.6-27.9,10.6-43.6c0-52.5-42.6-95.1-95.1-95.1    c-52.5,0-95.1,42.6-95.1,95.1c0,15.6,3.8,30.3,10.4,43.2c7.3-0.6,14.3-1.6,21.1-3C199.6,129.4,226,126.4,249.4,126.4z"></path>
	</g>
	<g>
		
			<linearGradient id="SVGID_00000031166709814192778710000011875398808582483098_" gradientUnits="userSpaceOnUse" x1="-36.3473" y1="174.2926" x2="396.997" y2="174.2926">
			<stop offset="0" style="stop-color:#4675B8"></stop>
			<stop offset="0.1178" style="stop-color:#4282C2"></stop>
			<stop offset="0.2917" style="stop-color:#3A92CF"></stop>
			<stop offset="0.4675" style="stop-color:#329FD9"></stop>
			<stop offset="0.6437" style="stop-color:#2BA8E0"></stop>
			<stop offset="0.8208" style="stop-color:#25AEE5"></stop>
			<stop offset="1" style="stop-color:#22B1E8"></stop>
		</linearGradient>
		<path style="fill:url(#SVGID_00000031166709814192778710000011875398808582483098_);" d="M110.6,158.1c0,0,54.2,20.9,115.1,8.4    c100.5-20.6,125.5,13.7,125.5,13.7s-43.6-9.7-117.9,6.5C155.9,203.6,110.6,158.1,110.6,158.1z"></path>
	</g>
	<g>
		
			<linearGradient id="SVGID_00000150802577551634679350000008316517455248165286_" gradientUnits="userSpaceOnUse" x1="-36.3473" y1="139.4963" x2="396.997" y2="139.4963">
			<stop offset="0" style="stop-color:#4675B8"></stop>
			<stop offset="0.1178" style="stop-color:#4282C2"></stop>
			<stop offset="0.2917" style="stop-color:#3A92CF"></stop>
			<stop offset="0.4675" style="stop-color:#329FD9"></stop>
			<stop offset="0.6437" style="stop-color:#2BA8E0"></stop>
			<stop offset="0.8208" style="stop-color:#25AEE5"></stop>
			<stop offset="1" style="stop-color:#22B1E8"></stop>
		</linearGradient>
		<path style="fill:url(#SVGID_00000150802577551634679350000008316517455248165286_);" d="M108.9,159.8l-7.9-7.9l10.5,4    c0.3,0.1,23.1,8.7,55.1,11.4c4.9-0.7,9.9-1.5,15-2.6c99.7-21.7,158.3-8.7,158.3-8.7s-33.6-46.1-168.6-18.4    C89.4,154.5,0,111.6,0,111.6s47.5,46.4,118,55.7C112.4,163.3,109.3,160.2,108.9,159.8z"></path>
	</g>
	<g>
		<path class="st3" d="M449.1,80.2c0-10.4-9.2-21.5-35-21.5c-3.5,0-9.2,0.7-13.8,1.3c-2.5,0.3-5,0.7-6.9,0.9c-2,0.3-3.6,0.5-4,0.5    h-7v76.7h5.8v-36.1c0.5,0.8,1.3,1.5,2.5,2.3l49.1,33.8h9.3l-54.7-37.5c-0.3-0.2-0.4-0.3-0.6-0.4h28.4    C442.1,100.3,449.1,89.5,449.1,80.2z M392.8,94.9c-1.5,0-3.5,0.8-4.6,2.4V67.3c2.9-0.1,5.6-0.7,8.4-1.3l0.1,0    c4.3-0.9,9.6-2,17.6-2c18.4,0,29,5.9,29,16.3c0,12.2-12.9,14.7-23.7,14.7H392.8z"></path>
		<path class="st3" d="M495.6,130.3c-7.4,2.4-13.6,3.5-19.3,3.5c-15.3,0-18.4-4.9-18.4-12.4V83.2h-5.4v38.3    c0,11.9,7.3,17.2,23.6,17.2c6.4,0,12.2-1.2,16.1-2c3-0.6,5.2-0.7,6.7-0.7h2V83.2h-5.4V130.3z"></path>
		<path class="st3" d="M542,106.4h-10.4c-6,0-15.9-1.1-15.9-8.7c0-4.4,1.9-10.2,18.2-10.2c9,0,16.4,1.2,22.5,3.7l0.8,0.3V85h-0.6    c-1.6,0-4.3-0.3-7.4-0.7c-1.2-0.2-2.5-0.3-3.8-0.5c-4.7-0.7-8.5-1-11.5-1c-20.6,0-23.6,9.4-23.6,15.1c0,4.1,1.9,13.5,19.7,13.5    h11.4c14,0,14.7,9.4,14.7,11.3c0,7.4-6.1,11.4-17.6,11.4c-14.1,0-25.7-3.4-27.9-4.1l-0.7-0.2v6.7h0.6c1.7,0,4.8,0.3,8.9,0.8    l1.6,0.2c5.5,0.6,11.8,1.4,16.5,1.4c16.4,0,24.1-5.1,24.1-16.1C561.5,114.5,555.5,106.4,542,106.4z"></path>
		<path class="st3" d="M593.8,82.8c-5.8,0-11.3,1-15.7,1.7l-0.3,0.1c-3.2,0.5-5.4,0.8-6.6,0.8h-0.6v6.4l0.7-0.2c8.5-2.8,15-4,22.3-4    c15.3,0,18.4,4.8,18.4,12.5v8.6c-8.1-1.6-14.3-2.4-18.6-2.4c-18.3,0-27.2,5.4-27.2,16.6c0,10.7,7.7,16,23.5,16    c2.1,0,6.5-0.5,10.7-0.9c2.2-0.2,4.4-0.5,6.4-0.8c3.5-0.4,6.5-0.8,7.5-0.8h3V100C617.5,88.1,610.2,82.8,593.8,82.8z M612.1,131.2    c-5.9,1.4-17.6,2.8-22.7,2.8c-11.9,0-17.7-3.6-17.7-11.1c0-7.2,3.7-12,21.8-12c5.7,0,12.6,0.9,18.6,2.5V131.2z"></path>
		<polygon class="st3" points="635.2,92.7 635.2,59 629.8,59 629.8,96.1 618.9,103.3 621.9,107.8 629.8,102.6 629.8,138.2     635.2,138.2 635.2,99 646.1,91.9 643.3,87.3   "></polygon>
		<path class="st3" d="M657.7,108.2c0-0.7,0.3-1.2,1.1-1.6L699,83.2h-9.8l-33.2,19.3c-1.1,0.7-2,1.6-2.6,2.6V59h-5.4v79.2h5.4v-26.6    c0.5,0.9,1.3,1.8,2.2,2.4l34.7,24.2h9.1L658.8,110C658.1,109.5,657.7,108.9,657.7,108.2z"></path>
		<path class="st3" d="M724.9,82.8c-5.8,0-11.3,1-15.7,1.7l-0.3,0.1c-3.2,0.5-5.4,0.8-6.6,0.8h-0.6v6.4l0.7-0.2c8.5-2.8,15-4,22.3-4    c15.3,0,18.4,4.8,18.4,12.5v8.6c-8.1-1.6-14.3-2.4-18.6-2.4c-18.3,0-27.2,5.4-27.2,16.6c0,10.7,7.7,16,23.5,16    c2.1,0,6.5-0.5,10.7-0.9c2.2-0.2,4.4-0.5,6.4-0.8c3.5-0.4,6.5-0.8,7.5-0.8h3V100C748.5,88.1,741.2,82.8,724.9,82.8z M743.1,131.2    c-5.9,1.4-17.6,2.8-22.7,2.8c-11.9,0-17.7-3.6-17.7-11.1c0-7.2,3.7-12,21.8-12c5.7,0,12.6,0.9,18.6,2.5V131.2z"></path>
	</g>
</g>
</svg>
